<?xml version="1.0" standalone="no"?>
<!DOCTYPE svg PUBLIC "-//W3C//DTD SVG 20010904//EN"
 "http://www.w3.org/TR/2001/REC-SVG-20010904/DTD/svg10.dtd">
<svg version="1.0" xmlns="http://www.w3.org/2000/svg"
 width="512.000000pt" height="512.000000pt" viewBox="0 0 512.000000 512.000000"
 preserveAspectRatio="xMidYMid meet">

<g transform="translate(0.000000,512.000000) scale(0.100000,-0.100000)"
fill="#000000" stroke="none">
<path d="M2410 4954 c-19 -2 -78 -9 -130 -15 -572 -66 -1091 -332 -1489 -764
-441 -479 -673 -1143 -622 -1780 27 -341 98 -598 246 -900 232 -471 616 -853
1089 -1085 164 -81 263 -118 435 -166 372 -102 825 -106 1202 -9 683 174 1263
643 1569 1270 111 228 181 450 222 708 24 155 29 451 9 612 -66 543 -287 1010
-663 1400 -441 459 -1023 713 -1668 729 -91 2 -181 2 -200 0z m316 -515 c612
-59 1137 -390 1454 -915 220 -364 310 -825 244 -1254 -81 -529 -384 -994 -841
-1294 -734 -481 -1722 -379 -2349 242 -319 315 -509 717 -554 1171 -20 201 -4
418 44 616 155 630 630 1146 1241 1344 260 85 510 115 761 90z"/>
<path d="M1948 3370 c-17 -10 -18 -64 -18 -894 0 -971 -5 -896 59 -896 33 0
-38 -38 796 424 385 214 710 399 723 413 15 16 22 37 22 63 0 26 -7 47 -22 63
-13 14 -237 143 -498 287 -732 404 -851 470 -911 506 -60 36 -124 50 -151 34z"/>
</g>
</svg>
